<?xml version="1.0" encoding="UTF-8"?>
<svg width="48px" height="48px" viewBox="0 0 48 48" version="1.1" xmlns="http://www.w3.org/2000/svg" xmlns:xlink="http://www.w3.org/1999/xlink">
    <title>icon/new tab</title>
    <g id="Symbols" stroke="none" stroke-width="1" fill="none" fill-rule="evenodd">
        <g id="icon/new-tab" fill="#0077C8" fill-rule="nonzero">
            <path d="M31.7777778,31.7777778 L16.2222222,31.7777778 L16.2222222,16.2222222 L24,16.2222222 L24,14 L16.2222222,14 C14.9888889,14 14,15 14,16.2222222 L14,31.7777778 C14,33 14.9888889,34 16.2222222,34 L31.7777778,34 C33,34 34,33 34,31.7777778 L34,24 L31.7777778,24 L31.7777778,31.7777778 Z M26.4471299,14 L26.4471299,16.1579629 L30.3206733,16.1579629 L19.7142857,26.7643505 L21.2356495,28.2857143 L31.8420371,17.6793267 L31.8420371,21.5528701 L34,21.5528701 L34,14 L26.4471299,14 Z" id="🔹-Primary-Color"></path>
        </g>
    </g>
</svg>