<?xml version="1.0" encoding="UTF-8"?>
<svg width="48px" height="48px" viewBox="0 0 48 48" version="1.1" xmlns="http://www.w3.org/2000/svg" xmlns:xlink="http://www.w3.org/1999/xlink">
    <title>icon/pin/unpinned</title>
    <g id="Symbols" stroke="none" stroke-width="1" fill="none" fill-rule="evenodd">
        <g id="icon/pin/unpinned" fill="#0077C8" fill-rule="nonzero">
            <path d="M33.7582662,21.4525031 L32.7024173,20.4096519 L27.6010003,15.3174317 L26.5340372,14.241298 C26.2117255,13.9195673 25.678244,13.9195673 25.3559322,14.241298 C25.0336205,14.5630287 25.0336205,15.0955485 25.3559322,15.4172792 L25.8005001,15.8610456 L21.0102806,19.9880738 C18.9763823,18.8120926 16.3312031,19.111635 14.6307308,20.8201359 L14.2417338,21.2084316 C13.9194221,21.5301623 13.9194221,22.0515879 14.2417338,22.3844127 L19.3320367,27.4655388 L15.3531537,31.4372486 C15.0308419,31.7589793 15.0308419,32.2914991 15.3531537,32.6132298 C15.5198666,32.7796422 15.7310364,32.8573013 15.9422062,32.8573013 C16.1533759,32.8573013 16.3645457,32.7796422 16.5312587,32.6132298 L20.5101417,28.6415199 L25.6337872,33.7559284 C25.7893859,33.9112467 26.0005557,34 26.2228397,34 C26.4451236,34 26.6562934,33.9112467 26.8118922,33.7448343 L27.2008891,33.3676328 C28.9124757,31.6591319 29.212559,29.0187214 28.0233398,26.9773956 L32.1689358,22.2180003 L32.5801612,22.6284843 C32.7468741,22.7948967 32.9580439,22.8725558 33.1692137,22.8725558 C33.3803834,22.8725558 33.5915532,22.7948967 33.7582662,22.6284843 C34.0805779,22.3067536 34.0805779,21.7742338 33.7582662,21.4525031 Z M25.9725111,26.1129272 C25.7503715,26.3736999 25.7407132,26.7600297 25.9531947,27.0304606 C26.8610698,28.218425 26.8127786,29.8796434 25.8566122,31 L21.4427935,26.576523 C21.4331352,26.5668648 21.4331352,26.5668648 21.423477,26.5572065 C21.4138187,26.5475483 21.4041605,26.53789 21.3945022,26.53789 L17,22.1337296 C18.1106984,21.1872214 19.7719168,21.1292719 20.9502229,22.0468053 C21.2206538,22.2592868 21.6069837,22.2496285 21.8677563,22.0178306 L26.513373,18 L30,21.4769688 L25.9725111,26.1129272 Z" id="-⮑-🎨-Color"></path>
        </g>
    </g>
</svg>